<svg version="1.1" xmlns="http://www.w3.org/2000/svg" viewBox="0 0 459 234" width="459" height="234"><!-- svg-source:excalidraw --><metadata></metadata><defs><style class="style-fonts">
      </style></defs><g transform="translate(62 56) rotate(0 167.5 61)" stroke="none"><path fill="#43423d" d="M 0.74,4.49 Q 0.74,4.49 -2.71,4.99 -6.17,5.50 -10.06,7.30 -13.96,9.10 -16.02,10.49 -18.08,11.88 -21.30,15.10 -24.53,18.31 -26.59,21.91 -28.65,25.52 -29.87,29.19 -31.09,32.87 -31.42,35.13 -31.75,37.38 -31.81,40.99 -31.87,44.61 -31.48,47.38 -31.09,50.16 -28.59,50.90 -26.10,51.64 -25.51,51.94 -24.92,52.24 -24.41,52.67 -23.91,53.10 -23.53,53.64 -23.14,54.17 -22.90,54.79 -22.65,55.40 -22.56,56.06 -22.47,56.71 -22.54,57.37 -22.61,58.03 -22.84,58.65 -23.06,59.27 -23.43,59.82 -23.79,60.37 -24.28,60.81 -24.77,61.26 -25.35,61.58 -25.93,61.89 -26.56,62.06 -27.20,62.23 -27.86,62.24 -28.53,62.25 -29.17,62.11 -29.81,61.96 -31.44,64.76 -33.06,67.55 -34.87,69.63 -36.67,71.71 -37.96,73.68 -39.25,75.66 -40.77,78.87 -42.29,82.09 -43.67,85.78 -45.05,89.47 -45.43,91.81 -45.80,94.15 -46.52,98.18 -47.25,102.21 -47.38,105.07 -47.51,107.94 -46.58,112.61 -45.65,117.29 -41.46,120.39 -37.27,123.49 -32.31,124.69 -27.36,125.90 -22.99,126.35 -18.63,126.81 -16.11,126.78 -13.58,126.76 -10.45,126.55 -7.31,126.34 -4.90,129.04 -2.48,131.75 -1.73,133.78 -0.99,135.81 -0.09,140.19 0.79,144.57 1.62,146.78 2.44,148.99 3.84,150.61 5.25,152.23 7.71,154.04 10.16,155.85 12.82,157.63 15.48,159.40 17.87,160.59 20.26,161.78 28.65,162.58 37.03,163.37 44.20,162.56 51.37,161.74 57.33,160.62 63.29,159.49 66.89,158.43 70.48,157.37 74.24,155.89 77.99,154.42 80.84,152.62 83.69,150.83 85.52,148.97 87.34,147.12 89.57,143.90 91.79,140.68 95.64,138.97 99.48,137.26 101.61,137.99 103.73,138.72 107.39,140.65 111.06,142.58 114.82,144.44 118.59,146.30 123.02,148.07 127.45,149.83 132.63,151.21 137.81,152.58 144.63,154.10 151.46,155.62 160.48,156.28 169.51,156.94 178.56,157.27 187.61,157.59 195.77,157.75 203.93,157.92 211.36,157.72 218.79,157.52 226.52,155.20 234.26,152.88 239.75,150.27 245.24,147.66 247.82,144.29 250.39,140.93 251.05,137.77 251.72,134.61 251.10,131.96 250.48,129.31 250.50,128.87 250.53,128.44 250.66,128.02 250.78,127.60 251.01,127.23 251.23,126.85 251.54,126.54 251.85,126.23 252.22,126.01 252.59,125.78 253.01,125.65 253.43,125.52 253.86,125.49 254.30,125.46 254.73,125.54 255.16,125.62 255.56,125.79 255.95,125.97 256.30,126.24 256.64,126.51 256.91,126.85 257.18,127.19 257.36,127.59 257.54,127.99 257.62,128.42 257.70,128.84 259.74,131.43 261.77,134.02 267.46,134.36 273.15,134.69 277.58,134.66 282.02,134.63 287.36,133.29 292.70,131.96 297.60,130.30 302.50,128.64 304.82,127.06 307.15,125.47 308.32,123.62 309.49,121.78 310.87,115.47 312.25,109.17 312.03,105.61 311.82,102.05 311.28,99.69 310.74,97.32 311.06,94.86 311.39,92.39 312.91,90.70 314.44,89.01 317.38,88.35 320.33,87.69 324.02,87.66 327.71,87.62 333.95,87.26 340.19,86.90 346.81,85.98 353.44,85.05 358.44,83.90 363.44,82.75 366.86,80.23 370.29,77.71 373.41,73.43 376.52,69.14 378.69,63.49 380.87,57.84 381.70,54.51 382.54,51.19 382.74,48.91 382.95,46.64 380.79,42.34 378.63,38.03 376.20,35.72 373.78,33.41 370.72,31.96 367.66,30.50 364.66,29.66 361.66,28.82 358.34,28.63 355.02,28.44 352.46,27.97 349.89,27.49 348.35,23.43 346.80,19.37 346.51,15.25 346.22,11.12 345.62,8.74 345.02,6.35 341.94,2.86 338.86,-0.63 335.30,-3.13 331.75,-5.64 327.45,-7.95 323.16,-10.26 316.21,-11.79 309.26,-13.32 305.59,-13.96 301.93,-14.60 295.82,-14.40 289.72,-14.19 285.50,-13.32 281.28,-12.45 279.07,-11.80 276.86,-11.15 273.73,-11.43 270.60,-11.71 268.13,-13.64 265.67,-15.57 262.75,-19.79 259.83,-24.00 257.43,-27.14 255.03,-30.27 252.10,-33.42 249.16,-36.56 245.75,-38.28 242.33,-40.00 240.19,-40.58 238.06,-41.15 234.96,-41.40 231.87,-41.64 226.47,-41.95 221.08,-42.25 215.59,-42.43 210.11,-42.62 205.76,-42.73 201.42,-42.85 196.58,-42.36 191.74,-41.87 186.57,-40.84 181.41,-39.81 177.61,-38.55 173.81,-37.29 170.16,-34.63 166.51,-31.97 164.42,-30.05 162.33,-28.13 159.24,-26.23 156.15,-24.34 153.98,-24.39 151.82,-24.45 147.26,-25.44 142.71,-26.43 140.21,-26.95 137.72,-27.48 134.75,-28.02 131.78,-28.56 127.84,-29.57 123.90,-30.59 120.56,-31.24 117.22,-31.89 115.05,-32.02 112.88,-32.15 109.78,-32.27 106.69,-32.39 103.90,-32.38 101.10,-32.38 98.46,-32.10 95.81,-31.82 93.49,-30.75 91.18,-29.68 88.81,-28.18 86.44,-26.69 84.21,-24.21 81.99,-21.73 79.76,-18.88 77.54,-16.03 76.05,-14.01 74.55,-12.00 71.45,-9.99 68.34,-7.98 65.81,-8.31 63.28,-8.63 58.97,-10.65 54.67,-12.66 49.54,-14.67 44.41,-16.67 41.11,-17.24 37.82,-17.80 34.69,-18.02 31.57,-18.25 28.43,-18.09 25.29,-17.94 21.60,-15.81 17.92,-13.69 16.51,-11.90 15.10,-10.10 14.23,-7.79 13.36,-5.47 12.27,-2.71 11.18,0.04 8.97,2.34 6.76,4.63 3.35,5.14 -0.05,5.64 -0.95,5.48 -1.85,5.33 -2.65,4.89 -3.45,4.45 -4.08,3.78 -4.70,3.12 -5.07,2.28 -5.45,1.45 -5.54,0.54 -5.63,-0.36 -5.42,-1.25 -5.22,-2.14 -4.74,-2.91 -4.26,-3.69 -3.56,-4.28 -2.86,-4.86 -2.00,-5.19 -1.15,-5.52 -0.24,-5.56 0.66,-5.60 1.54,-5.35 2.42,-5.09 3.17,-4.57 3.92,-4.05 4.46,-3.32 5.01,-2.59 5.29,-1.72 5.57,-0.85 5.56,0.05 5.55,0.96 5.25,1.83 4.95,2.69 4.39,3.41 3.83,4.13 3.07,4.64 2.31,5.14 1.43,5.38 0.55,5.61 -0.35,5.55 -1.26,5.49 -2.11,5.15 -2.95,4.80 -3.64,4.20 -4.33,3.60 -4.80,2.82 -5.26,2.03 -5.45,1.14 -5.63,0.24 -5.53,-0.65 -5.42,-1.56 -5.03,-2.38 -4.63,-3.21 -4.00,-3.87 -3.36,-4.52 -2.55,-4.94 -1.74,-5.36 -0.84,-5.50 0.05,-5.64 0.05,-5.64 0.05,-5.64 0.39,-4.76 0.72,-3.88 1.94,-5.91 3.16,-7.93 4.52,-10.15 5.88,-12.37 7.04,-14.19 8.20,-16.01 10.38,-18.36 12.57,-20.71 16.26,-23.35 19.95,-25.98 22.37,-26.31 24.78,-26.63 28.46,-26.87 32.14,-27.10 35.59,-26.89 39.05,-26.68 43.11,-26.23 47.17,-25.77 51.49,-24.75 55.80,-23.73 57.75,-22.78 59.70,-21.83 61.66,-20.71 63.61,-19.59 65.79,-18.53 67.96,-17.47 69.53,-19.16 71.10,-20.85 73.37,-24.01 75.64,-27.18 78.59,-30.73 81.54,-34.29 84.56,-36.17 87.59,-38.05 91.22,-39.50 94.84,-40.96 98.05,-41.21 101.25,-41.47 104.12,-41.37 106.99,-41.27 110.45,-41.16 113.91,-41.05 116.34,-40.64 118.78,-40.23 122.21,-39.63 125.64,-39.02 129.52,-38.42 133.40,-37.82 136.64,-37.28 139.88,-36.74 142.53,-36.06 145.18,-35.38 149.07,-34.13 152.97,-32.89 155.67,-33.02 158.37,-33.16 160.82,-34.82 163.27,-36.49 167.60,-39.56 171.94,-42.64 176.08,-44.04 180.23,-45.44 185.65,-46.61 191.07,-47.78 196.26,-48.42 201.45,-49.06 205.82,-49.12 210.18,-49.19 215.73,-49.25 221.27,-49.31 226.94,-49.32 232.61,-49.33 236.61,-48.89 240.61,-48.45 243.00,-47.40 245.38,-46.34 249.89,-44.25 254.41,-42.16 257.95,-39.03 261.49,-35.90 264.87,-32.39 268.24,-28.88 270.53,-25.11 272.82,-21.33 274.21,-19.71 275.60,-18.08 277.77,-18.27 279.95,-18.47 284.67,-19.58 289.40,-20.69 296.24,-21.08 303.08,-21.47 306.87,-20.82 310.66,-20.17 318.55,-18.66 326.43,-17.15 331.34,-15.00 336.25,-12.85 340.82,-10.28 345.38,-7.71 348.80,-4.68 352.21,-1.64 353.60,1.06 354.99,3.77 355.77,6.88 356.54,10.00 356.77,12.76 357.01,15.52 355.46,17.61 353.91,19.70 356.81,20.29 359.70,20.87 361.75,21.54 363.79,22.21 367.19,23.43 370.59,24.65 374.46,26.69 378.34,28.72 381.41,31.93 384.49,35.13 387.15,41.09 389.81,47.04 389.19,49.97 388.56,52.91 387.44,56.41 386.31,59.92 383.88,66.29 381.44,72.65 377.78,77.71 374.11,82.77 369.70,85.99 365.30,89.21 359.97,90.74 354.65,92.27 347.81,93.59 340.97,94.92 334.48,95.80 327.98,96.68 323.21,96.42 318.44,96.16 318.70,98.86 318.96,101.56 319.29,105.86 319.61,110.16 318.90,115.98 318.19,121.80 316.80,124.15 315.41,126.51 313.13,128.93 310.86,131.34 307.78,133.01 304.70,134.68 299.60,136.63 294.49,138.58 288.46,140.32 282.44,142.06 277.71,142.51 272.99,142.95 265.87,142.74 258.75,142.54 255.69,139.21 252.62,135.88 251.55,132.59 250.48,129.31 250.50,128.87 250.53,128.44 250.66,128.02 250.78,127.60 251.01,127.23 251.23,126.85 251.54,126.54 251.85,126.23 252.22,126.01 252.59,125.78 253.01,125.65 253.43,125.52 253.86,125.49 254.30,125.46 254.73,125.54 255.16,125.62 255.55,125.79 255.95,125.97 256.30,126.24 256.64,126.51 256.91,126.85 257.18,127.19 257.36,127.59 257.54,127.99 257.62,128.42 257.70,128.84 257.64,129.58 257.58,130.32 257.46,133.18 257.34,136.05 256.02,140.10 254.70,144.16 251.25,148.31 247.80,152.45 241.83,155.33 235.85,158.21 227.44,160.70 219.02,163.19 211.44,163.47 203.86,163.76 195.65,163.71 187.44,163.65 178.27,163.48 169.11,163.30 159.62,162.78 150.13,162.26 143.14,161.00 136.16,159.74 130.51,158.63 124.85,157.51 120.01,156.14 115.18,154.77 110.67,153.30 106.17,151.83 102.39,148.90 98.61,145.97 97.19,147.56 95.77,149.15 94.00,150.87 92.22,152.59 89.69,154.60 87.16,156.61 83.84,158.50 80.51,160.40 76.50,162.18 72.49,163.97 68.63,165.16 64.77,166.36 58.60,167.85 52.43,169.35 44.60,170.63 36.76,171.91 29.48,171.91 22.20,171.90 19.11,171.09 16.02,170.28 13.19,168.82 10.37,167.36 7.52,165.60 4.67,163.83 0.93,161.38 -2.80,158.93 -5.14,155.93 -7.49,152.93 -8.73,149.67 -9.97,146.42 -10.38,143.04 -10.80,139.66 -10.21,137.38 -9.61,135.10 -11.77,134.99 -13.94,134.88 -16.51,134.62 -19.08,134.35 -24.00,134.25 -28.91,134.14 -32.81,133.41 -36.72,132.67 -38.99,131.55 -41.26,130.43 -45.52,128.02 -49.79,125.61 -51.71,122.76 -53.63,119.91 -54.74,113.62 -55.85,107.33 -55.55,104.29 -55.25,101.25 -54.97,96.81 -54.68,92.36 -54.03,89.64 -53.38,86.92 -52.36,82.76 -51.34,78.60 -49.90,74.17 -48.47,69.74 -46.87,67.26 -45.27,64.78 -42.99,61.78 -40.70,58.78 -38.95,57.34 -37.19,55.90 -34.54,54.33 -31.90,52.75 -29.00,52.20 -26.10,51.64 -25.51,51.94 -24.92,52.24 -24.42,52.67 -23.91,53.10 -23.53,53.64 -23.14,54.17 -22.90,54.79 -22.66,55.40 -22.56,56.06 -22.47,56.71 -22.54,57.37 -22.61,58.02 -22.83,58.65 -23.06,59.27 -23.43,59.82 -23.79,60.37 -24.28,60.81 -24.77,61.26 -25.35,61.58 -25.93,61.89 -26.56,62.06 -27.20,62.23 -27.86,62.24 -28.52,62.25 -29.17,62.11 -29.81,61.96 -31.62,61.23 -33.44,60.51 -35.52,58.96 -37.60,57.41 -39.05,54.71 -40.50,52.02 -41.19,48.16 -41.88,44.30 -41.39,39.96 -40.89,35.62 -40.32,33.15 -39.74,30.67 -38.81,25.93 -37.89,21.19 -36.41,18.23 -34.93,15.27 -33.35,13.42 -31.77,11.57 -29.60,9.28 -27.42,6.99 -25.34,5.41 -23.26,3.83 -20.81,2.32 -18.36,0.82 -15.27,-0.72 -12.18,-2.28 -9.90,-2.74 -7.62,-3.20 -4.18,-3.84 -0.74,-4.49 -0.20,-4.51 0.34,-4.54 0.88,-4.43 1.42,-4.32 1.92,-4.09 2.41,-3.85 2.84,-3.51 3.27,-3.16 3.60,-2.73 3.93,-2.29 4.15,-1.78 4.37,-1.28 4.46,-0.74 4.55,-0.20 4.50,0.34 4.46,0.89 4.29,1.41 4.12,1.93 3.83,2.40 3.53,2.86 3.14,3.24 2.75,3.63 2.27,3.90 1.80,4.18 1.27,4.33 0.74,4.49 0.74,4.49 L 0.74,4.49 Z"></path></g></svg>