<svg version="1.1" xmlns="http://www.w3.org/2000/svg" viewBox="0 0 174 154" width="174" height="154"><!-- svg-source:excalidraw --><metadata></metadata><defs><style class="style-fonts">
      </style></defs><g transform="translate(78 58) rotate(0 10 22)" stroke="none"><path fill="#43423d" d="M 0.65,5.22 Q 0.65,5.22 -1.63,5.55 -3.93,5.87 -6.46,7.15 -8.99,8.44 -10.22,10.18 -11.45,11.92 -11.99,14.08 -12.53,16.24 -12.38,18.75 -12.23,21.27 -12.15,24.00 -12.07,26.73 -10.35,28.51 -8.63,30.28 -7.32,32.06 -6.02,33.84 -5.20,35.88 -4.38,37.92 -1.78,37.82 0.80,37.72 3.33,37.71 5.86,37.70 8.73,37.71 11.61,37.71 14.42,37.09 17.24,36.48 19.72,35.85 22.21,35.21 24.80,32.86 27.40,30.51 28.59,27.87 29.78,25.24 30.20,22.94 30.63,20.64 31.01,18.41 31.39,16.18 30.80,13.54 30.22,10.91 28.01,9.54 25.81,8.17 23.67,7.85 21.53,7.53 19.21,7.43 16.90,7.34 13.40,6.92 9.90,6.51 7.32,6.44 4.74,6.36 3.10,6.67 1.45,6.98 0.30,7.03 -0.84,7.08 -1.95,6.75 -3.06,6.43 -4.01,5.78 -4.96,5.12 -5.64,4.19 -6.33,3.27 -6.69,2.17 -7.04,1.07 -7.03,-0.07 -7.02,-1.23 -6.64,-2.32 -6.26,-3.41 -5.55,-4.32 -4.84,-5.23 -3.88,-5.86 -2.92,-6.50 -1.80,-6.80 -0.69,-7.09 0.45,-7.02 1.61,-6.94 2.67,-6.50 3.74,-6.06 4.61,-5.31 5.48,-4.55 6.06,-3.56 6.65,-2.56 6.88,-1.43 7.12,-0.30 6.98,0.83 6.84,1.98 6.35,3.02 5.85,4.06 5.05,4.89 4.25,5.72 3.22,6.25 2.20,6.78 1.06,6.95 -0.08,7.13 -1.21,6.93 -2.35,6.73 -3.36,6.17 -4.37,5.62 -5.16,4.78 -5.94,3.93 -6.41,2.88 -6.89,1.83 -7.00,0.68 -7.11,-0.46 -6.85,-1.59 -6.59,-2.71 -5.98,-3.69 -5.38,-4.67 -4.49,-5.41 -3.60,-6.15 -2.53,-6.56 -1.45,-6.98 -1.45,-6.98 -1.45,-6.98 2.23,-7.65 5.93,-8.33 8.16,-8.20 10.40,-8.07 13.78,-7.67 17.16,-7.26 20.02,-7.19 22.88,-7.12 25.44,-6.65 28.00,-6.18 30.48,-5.40 32.96,-4.63 35.89,-2.56 38.82,-0.49 40.76,1.69 42.69,3.87 43.91,6.51 45.12,9.15 45.62,11.25 46.13,13.35 45.93,16.02 45.74,18.69 45.45,21.70 45.15,24.70 44.41,26.89 43.67,29.07 42.83,31.20 41.99,33.32 41.05,35.35 40.11,37.37 38.57,39.39 37.03,41.41 34.61,43.72 32.19,46.04 30.19,47.15 28.19,48.26 26.07,48.89 23.96,49.52 20.56,50.46 17.17,51.40 14.43,51.84 11.69,52.28 8.77,52.28 5.85,52.28 3.27,52.27 0.68,52.25 -1.58,52.23 -3.85,52.21 -6.73,51.78 -9.60,51.34 -11.83,49.71 -14.06,48.08 -15.41,46.39 -16.76,44.69 -18.29,41.94 -19.83,39.18 -21.68,36.96 -23.54,34.73 -24.30,32.74 -25.06,30.74 -25.45,27.00 -25.83,23.25 -25.73,20.67 -25.62,18.09 -25.36,15.83 -25.10,13.56 -24.12,10.85 -23.15,8.14 -21.68,5.77 -20.21,3.41 -18.27,1.43 -16.33,-0.53 -14.20,-1.64 -12.06,-2.74 -8.66,-3.73 -5.26,-4.72 -2.96,-4.97 -0.65,-5.22 -0.01,-5.22 0.61,-5.23 1.23,-5.08 1.85,-4.93 2.41,-4.63 2.97,-4.34 3.45,-3.92 3.93,-3.50 4.29,-2.98 4.65,-2.46 4.88,-1.87 5.11,-1.27 5.18,-0.64 5.26,-0.01 5.19,0.61 5.11,1.24 4.89,1.83 4.67,2.43 4.31,2.95 3.95,3.47 3.48,3.90 3.00,4.32 2.44,4.62 1.88,4.91 1.26,5.07 0.65,5.22 0.65,5.22 L 0.65,5.22 Z"></path></g><g transform="translate(123 43) rotate(0 6.5 -7)" stroke="none"><path fill="#43423d" d="M -3.24,-3.89 Q -3.24,-3.89 -1.55,-5.37 0.12,-6.85 2.60,-9.37 5.08,-11.88 7.32,-15.17 9.55,-18.47 10.36,-18.90 11.16,-19.33 12.06,-19.49 12.96,-19.64 13.87,-19.50 14.77,-19.35 15.58,-18.93 16.39,-18.51 17.02,-17.85 17.65,-17.19 18.04,-16.36 18.43,-15.53 18.53,-14.63 18.63,-13.72 18.44,-12.83 18.25,-11.93 17.78,-11.15 17.32,-10.36 16.62,-9.77 15.93,-9.17 15.08,-8.83 14.24,-8.49 13.33,-8.43 12.41,-8.38 11.53,-8.62 10.65,-8.86 9.89,-9.37 9.13,-9.88 8.58,-10.60 8.02,-11.32 7.73,-12.19 7.43,-13.05 7.42,-13.97 7.42,-14.88 7.71,-15.75 7.99,-16.61 8.54,-17.34 9.09,-18.07 9.84,-18.59 10.60,-19.11 11.48,-19.35 12.36,-19.60 13.27,-19.56 14.18,-19.51 15.03,-19.18 15.88,-18.85 16.58,-18.26 17.28,-17.67 17.75,-16.89 18.23,-16.11 18.43,-15.22 18.63,-14.33 18.54,-13.42 18.44,-12.51 18.06,-11.68 17.68,-10.85 17.06,-10.19 16.43,-9.52 16.43,-9.52 16.44,-9.52 15.94,-8.72 15.44,-7.93 14.08,-6.00 12.72,-4.07 9.74,-1.48 6.77,1.10 5.00,2.50 3.24,3.89 2.73,4.22 2.21,4.55 1.64,4.75 1.06,4.95 0.45,5.01 -0.15,5.06 -0.75,4.97 -1.36,4.88 -1.92,4.64 -2.49,4.41 -2.98,4.05 -3.47,3.69 -3.86,3.22 -4.25,2.75 -4.52,2.20 -4.79,1.65 -4.92,1.05 -5.04,0.45 -5.03,-0.15 -5.01,-0.76 -4.84,-1.35 -4.68,-1.94 -4.38,-2.47 -4.08,-3.00 -3.66,-3.44 -3.24,-3.89 -3.24,-3.89 L -3.24,-3.89 Z"></path></g><g transform="translate(140 77) rotate(0 12 -1.5)" stroke="none"><path fill="#43423d" d="M 0,-5.22 Q 0,-5.22 1.71,-5.30 3.42,-5.38 6.00,-6.02 8.58,-6.67 10.70,-7.24 12.81,-7.81 14.95,-8.03 17.09,-8.25 20.41,-8.84 23.72,-9.44 24.76,-9.31 25.79,-9.19 26.73,-8.74 27.68,-8.29 28.42,-7.56 29.17,-6.84 29.65,-5.91 30.13,-4.98 30.28,-3.95 30.44,-2.92 30.26,-1.89 30.08,-0.86 29.58,0.04 29.08,0.96 28.32,1.66 27.55,2.37 26.60,2.80 25.65,3.23 24.61,3.33 23.57,3.43 22.55,3.19 21.54,2.96 20.65,2.41 19.76,1.86 19.10,1.06 18.43,0.25 18.06,-0.71 17.68,-1.68 17.64,-2.73 17.59,-3.77 17.89,-4.77 18.18,-5.77 18.77,-6.63 19.37,-7.48 20.21,-8.11 21.04,-8.73 22.04,-9.05 23.03,-9.37 24.07,-9.36 25.11,-9.34 26.10,-9.00 27.08,-8.65 27.91,-8.01 28.73,-7.37 29.30,-6.50 29.88,-5.63 30.14,-4.62 30.41,-3.62 30.34,-2.57 30.27,-1.53 29.88,-0.57 29.48,0.38 28.79,1.17 28.11,1.96 27.21,2.49 26.31,3.01 25.29,3.22 24.27,3.44 24.27,3.44 24.27,3.44 21.34,3.87 18.41,4.31 16.11,4.17 13.81,4.04 11.18,4.41 8.56,4.78 6.02,5.08 3.47,5.38 1.73,5.30 0,5.22 -0.62,5.15 -1.25,5.07 -1.84,4.85 -2.43,4.63 -2.94,4.27 -3.46,3.91 -3.88,3.44 -4.30,2.97 -4.59,2.41 -4.88,1.85 -5.04,1.24 -5.19,0.63 -5.19,-0.00 -5.19,-0.63 -5.04,-1.24 -4.88,-1.85 -4.59,-2.41 -4.30,-2.97 -3.88,-3.44 -3.46,-3.91 -2.94,-4.27 -2.42,-4.63 -1.84,-4.85 -1.25,-5.07 -0.62,-5.15 0.00,-5.22 0.00,-5.22 L 0,-5.22 Z"></path></g><g transform="translate(127 110) rotate(0 5.5 12)" stroke="none"><path fill="#43423d" d="M 4.08,-3.40 Q 4.08,-3.40 5.56,-1.70 7.03,0.00 8.26,1.96 9.48,3.93 10.94,6.85 12.40,9.77 13.28,12.56 14.17,15.35 15.21,17.99 16.25,20.63 16.65,21.55 17.05,22.48 17.13,23.49 17.21,24.49 16.97,25.47 16.73,26.45 16.19,27.30 15.64,28.15 14.86,28.79 14.07,29.42 13.13,29.77 12.18,30.12 11.17,30.15 10.16,30.18 9.20,29.88 8.23,29.59 7.41,29.00 6.59,28.41 6.00,27.59 5.41,26.77 5.11,25.81 4.82,24.85 4.84,23.84 4.87,22.83 5.21,21.88 5.56,20.93 6.19,20.15 6.82,19.36 7.67,18.81 8.52,18.27 9.50,18.02 10.48,17.78 11.49,17.86 12.49,17.94 13.42,18.34 14.35,18.73 15.10,19.41 15.85,20.08 16.35,20.96 16.85,21.84 17.04,22.83 17.23,23.82 17.10,24.82 16.96,25.82 16.51,26.72 16.07,27.63 15.35,28.34 14.64,29.06 13.74,29.51 12.83,29.96 11.83,30.09 10.83,30.23 9.84,30.04 8.85,29.85 7.97,29.36 7.09,28.86 6.42,28.11 5.74,27.36 5.74,27.36 5.74,27.36 4.80,25.40 3.86,23.43 3.26,21.07 2.67,18.71 1.75,15.34 0.82,11.97 -0.22,9.43 -1.28,6.89 -2.68,5.15 -4.08,3.40 -4.43,2.86 -4.78,2.32 -4.99,1.72 -5.20,1.11 -5.26,0.47 -5.31,-0.16 -5.22,-0.79 -5.12,-1.42 -4.88,-2.02 -4.63,-2.61 -4.25,-3.13 -3.87,-3.64 -3.38,-4.05 -2.88,-4.46 -2.31,-4.75 -1.73,-5.03 -1.10,-5.16 -0.48,-5.30 0.16,-5.28 0.80,-5.26 1.41,-5.08 2.03,-4.91 2.59,-4.60 3.15,-4.28 3.62,-3.84 4.08,-3.40 4.08,-3.40 L 4.08,-3.40 Z"></path></g><g transform="translate(88 122) rotate(0 2 11)" stroke="none"><path fill="#43423d" d="M 4.95,-1.10 Q 4.95,-1.10 5.54,1.48 6.14,4.06 6.48,6.59 6.82,9.11 7.00,11.36 7.17,13.61 8.10,16.60 9.03,19.59 9.28,20.46 9.53,21.32 9.50,22.23 9.46,23.13 9.13,23.97 8.81,24.81 8.23,25.51 7.66,26.20 6.89,26.68 6.12,27.15 5.24,27.36 4.37,27.56 3.47,27.48 2.57,27.39 1.74,27.02 0.92,26.65 0.26,26.04 -0.39,25.43 -0.83,24.63 -1.26,23.84 -1.42,22.95 -1.57,22.06 -1.44,21.17 -1.30,20.28 -0.89,19.48 -0.48,18.67 0.16,18.04 0.81,17.42 1.62,17.03 2.44,16.64 3.33,16.53 4.23,16.42 5.11,16.60 6.00,16.79 6.78,17.24 7.55,17.70 8.15,18.38 8.74,19.06 9.08,19.89 9.43,20.73 9.49,21.63 9.55,22.53 9.32,23.40 9.09,24.28 8.59,25.03 8.09,25.78 7.38,26.34 6.67,26.89 5.82,27.19 4.96,27.49 4.06,27.50 3.16,27.51 2.30,27.23 1.44,26.96 0.72,26.42 -0.00,25.88 -0.51,25.14 -1.03,24.40 -1.03,24.40 -1.03,24.40 -1.95,21.41 -2.86,18.41 -3.17,16.28 -3.48,14.15 -3.66,10.21 -3.84,6.28 -4.39,3.69 -4.95,1.10 -5.01,0.49 -5.07,-0.11 -4.98,-0.72 -4.90,-1.32 -4.67,-1.89 -4.44,-2.46 -4.08,-2.95 -3.72,-3.45 -3.25,-3.84 -2.78,-4.24 -2.23,-4.51 -1.69,-4.78 -1.09,-4.92 -0.49,-5.05 0.11,-5.03 0.72,-5.02 1.31,-4.86 1.90,-4.70 2.44,-4.40 2.98,-4.11 3.42,-3.69 3.87,-3.27 4.21,-2.76 4.54,-2.25 4.75,-1.67 4.95,-1.10 4.95,-1.10 L 4.95,-1.10 Z"></path></g><g transform="translate(56 115) rotate(0 -8.5 7)" stroke="none"><path fill="#43423d" d="M 3.72,2.98 Q 3.72,2.98 1.31,5.77 -1.09,8.57 -3.49,10.72 -5.88,12.87 -7.90,14.23 -9.92,15.59 -12.24,16.99 -14.56,18.39 -15.33,18.67 -16.09,18.94 -16.90,18.96 -17.72,18.97 -18.49,18.72 -19.27,18.48 -19.92,18.00 -20.58,17.52 -21.05,16.85 -21.52,16.19 -21.75,15.41 -21.98,14.63 -21.95,13.82 -21.92,13.00 -21.64,12.24 -21.35,11.48 -20.83,10.85 -20.32,10.22 -19.63,9.79 -18.94,9.36 -18.15,9.17 -17.36,8.98 -16.55,9.05 -15.74,9.13 -14.99,9.46 -14.25,9.78 -13.65,10.33 -13.05,10.88 -12.65,11.59 -12.26,12.30 -12.11,13.10 -11.97,13.90 -12.09,14.71 -12.20,15.51 -12.57,16.24 -12.94,16.96 -13.52,17.53 -14.10,18.10 -14.83,18.46 -15.56,18.81 -16.37,18.92 -17.18,19.02 -17.97,18.86 -18.77,18.70 -19.48,18.29 -20.18,17.88 -20.72,17.27 -21.26,16.66 -21.57,15.91 -21.88,15.16 -21.94,14.35 -22.00,13.54 -21.80,12.75 -21.60,11.97 -21.15,11.29 -20.71,10.60 -20.07,10.10 -19.43,9.60 -19.43,9.60 -19.43,9.60 -15.62,7.70 -11.82,5.81 -9.96,4.36 -8.10,2.92 -5.91,-0.02 -3.72,-2.98 -3.31,-3.38 -2.90,-3.78 -2.40,-4.07 -1.91,-4.37 -1.36,-4.53 -0.81,-4.70 -0.23,-4.73 0.33,-4.75 0.90,-4.64 1.46,-4.54 1.98,-4.29 2.50,-4.05 2.95,-3.69 3.40,-3.33 3.75,-2.88 4.10,-2.42 4.33,-1.89 4.56,-1.37 4.66,-0.80 4.76,-0.23 4.72,0.33 4.68,0.90 4.50,1.45 4.33,2.00 4.02,2.49 3.72,2.98 3.72,2.98 L 3.72,2.98 Z"></path></g><g transform="translate(37 87) rotate(0 -13.5 -1.5)" stroke="none"><path fill="#43423d" d="M -0.45,5.04 Q -0.45,5.04 -3.61,4.69 -6.77,4.34 -9.71,4.20 -12.65,4.05 -15.06,4.06 -17.47,4.06 -19.63,4.20 -21.79,4.35 -23.91,3.44 -26.02,2.54 -26.68,2.46 -27.35,2.37 -27.97,2.14 -28.59,1.90 -29.14,1.51 -29.69,1.13 -30.13,0.63 -30.57,0.13 -30.88,-0.46 -31.19,-1.05 -31.35,-1.70 -31.50,-2.35 -31.50,-3.02 -31.50,-3.69 -31.34,-4.34 -31.17,-4.98 -30.86,-5.57 -30.55,-6.17 -30.10,-6.66 -29.66,-7.16 -29.10,-7.54 -28.55,-7.92 -27.93,-8.15 -27.30,-8.39 -26.63,-8.46 -25.97,-8.54 -28.51,-6.91 -31.05,-5.29 -30.55,-6.03 -30.05,-6.78 -29.34,-7.33 -28.63,-7.88 -27.78,-8.17 -26.93,-8.46 -26.04,-8.47 -25.14,-8.48 -24.29,-8.20 -23.43,-7.92 -22.72,-7.38 -22.00,-6.84 -21.49,-6.10 -20.98,-5.36 -20.73,-4.50 -20.49,-3.64 -20.53,-2.74 -20.57,-1.84 -20.89,-1.01 -21.22,-0.17 -21.80,0.51 -22.37,1.20 -23.14,1.66 -23.90,2.13 -24.78,2.33 -25.65,2.53 -26.55,2.44 -27.44,2.35 -28.26,1.98 -29.07,1.61 -29.73,1.00 -30.39,0.38 -30.81,-0.40 -31.24,-1.18 -31.39,-2.07 -31.54,-2.95 -31.40,-3.84 -31.26,-4.73 -30.85,-5.52 -30.44,-6.32 -29.79,-6.94 -29.14,-7.56 -28.33,-7.95 -27.52,-8.33 -26.63,-8.43 -25.74,-8.54 -24.86,-8.35 -23.98,-8.16 -23.21,-7.71 -22.44,-7.25 -21.85,-6.57 -21.26,-5.89 -20.93,-5.06 -20.59,-4.23 -20.53,-3.33 -20.48,-2.44 -23.25,0.05 -26.02,2.54 -26.68,2.46 -27.34,2.37 -27.97,2.14 -28.59,1.90 -29.14,1.51 -29.69,1.13 -30.13,0.63 -30.57,0.13 -30.88,-0.46 -31.19,-1.05 -31.35,-1.70 -31.50,-2.35 -31.50,-3.02 -31.50,-3.69 -31.34,-4.34 -31.17,-4.98 -30.86,-5.57 -30.55,-6.17 -30.10,-6.66 -29.66,-7.16 -29.10,-7.54 -28.55,-7.92 -27.93,-8.15 -27.30,-8.39 -26.64,-8.46 -25.97,-8.54 -23.82,-7.43 -21.68,-6.32 -19.47,-6.11 -17.26,-5.91 -14.76,-5.80 -12.26,-5.69 -9.07,-5.59 -5.87,-5.49 -2.70,-5.26 0.45,-5.04 1.05,-4.91 1.65,-4.78 2.19,-4.51 2.74,-4.25 3.21,-3.85 3.68,-3.46 4.04,-2.97 4.40,-2.48 4.64,-1.92 4.87,-1.35 4.96,-0.75 5.05,-0.15 5.00,0.45 4.94,1.06 4.74,1.63 4.55,2.21 4.21,2.72 3.88,3.24 3.44,3.65 2.99,4.07 2.46,4.37 1.93,4.67 1.34,4.84 0.76,5.00 0.15,5.02 -0.45,5.04 -0.45,5.04 L -0.45,5.04 Z"></path></g><g transform="translate(50 48) rotate(0 -9 -5.5)" stroke="none"><path fill="#43423d" d="M -3.24,4.05 Q -3.24,4.05 -4.72,2.96 -6.21,1.87 -8.39,0.54 -10.58,-0.78 -13.05,-2.05 -15.52,-3.32 -18.46,-4.45 -21.40,-5.58 -22.17,-6.26 -22.95,-6.95 -23.46,-7.85 -23.98,-8.74 -24.18,-9.76 -24.39,-10.77 -24.25,-11.80 -24.12,-12.82 -23.67,-13.75 -23.22,-14.68 -22.49,-15.42 -21.77,-16.16 -20.84,-16.63 -19.92,-17.09 -18.90,-17.24 -17.87,-17.39 -16.85,-17.20 -15.84,-17.01 -14.93,-16.51 -14.03,-16.01 -13.33,-15.25 -12.63,-14.48 -12.22,-13.53 -11.80,-12.59 -11.71,-11.56 -11.62,-10.53 -11.86,-9.52 -12.10,-8.51 -12.65,-7.64 -13.20,-6.76 -14.00,-6.11 -14.80,-5.45 -15.77,-5.09 -16.74,-4.72 -17.78,-4.69 -18.81,-4.65 -19.80,-4.95 -20.79,-5.24 -21.64,-5.84 -22.48,-6.44 -23.09,-7.27 -23.70,-8.11 -24.01,-9.10 -24.32,-10.08 -24.30,-11.12 -24.28,-12.15 -23.93,-13.13 -23.59,-14.10 -22.94,-14.91 -22.30,-15.72 -21.43,-16.29 -20.57,-16.85 -19.56,-17.11 -18.56,-17.36 -17.53,-17.29 -16.50,-17.21 -15.55,-16.81 -14.59,-16.41 -14.59,-16.41 -14.59,-16.41 -14.04,-16.14 -13.48,-15.87 -10.74,-14.56 -8.00,-13.26 -5.75,-11.40 -3.51,-9.54 -1.52,-8.00 0.46,-6.47 1.85,-5.26 3.24,-4.05 3.67,-3.60 4.11,-3.15 4.43,-2.61 4.75,-2.08 4.93,-1.48 5.11,-0.88 5.14,-0.25 5.17,0.36 5.05,0.98 4.93,1.59 4.67,2.16 4.41,2.72 4.02,3.21 3.63,3.70 3.13,4.08 2.63,4.46 2.06,4.71 1.49,4.96 0.87,5.07 0.26,5.18 -0.36,5.13 -0.98,5.09 -1.58,4.90 -2.17,4.70 -2.70,4.37 -3.24,4.05 -3.24,4.05 L -3.24,4.05 Z"></path></g><g transform="translate(82 34) rotate(0 0.5 -12)" stroke="none"><path fill="#43423d" d="M -5.20,-0.86 Q -5.20,-0.86 -4.98,-2.60 -4.77,-4.34 -4.81,-7.45 -4.86,-10.56 -4.99,-13.25 -5.13,-15.95 -5.25,-18.10 -5.38,-20.25 -5.40,-22.12 -5.42,-24.00 -5.25,-25.02 -5.08,-26.05 -4.60,-26.96 -4.11,-27.88 -3.36,-28.60 -2.60,-29.31 -1.66,-29.75 -0.71,-30.19 0.31,-30.30 1.34,-30.41 2.36,-30.19 3.37,-29.96 4.26,-29.43 5.15,-28.89 5.83,-28.10 6.50,-27.31 6.89,-26.34 7.27,-25.38 7.33,-24.34 7.38,-23.30 7.10,-22.30 6.83,-21.30 6.24,-20.44 5.66,-19.58 4.83,-18.95 4.00,-18.32 3.02,-17.99 2.03,-17.65 0.99,-17.65 -0.04,-17.65 -1.02,-17.99 -2.01,-18.32 -2.83,-18.95 -3.66,-19.58 -4.24,-20.44 -4.83,-21.30 -5.10,-22.30 -5.38,-23.30 -5.33,-24.34 -5.27,-25.38 -4.88,-26.34 -4.50,-27.31 -3.83,-28.10 -3.15,-28.89 -2.26,-29.43 -1.37,-29.96 -0.36,-30.19 0.65,-30.41 1.68,-30.30 2.72,-30.19 3.66,-29.75 4.60,-29.31 5.36,-28.60 6.11,-27.88 6.60,-26.96 7.08,-26.04 7.25,-25.02 7.42,-23.99 7.42,-23.99 7.42,-23.99 7.31,-20.55 7.19,-17.11 7.06,-14.77 6.92,-12.43 6.77,-10.24 6.62,-8.06 6.27,-5.31 5.92,-2.55 5.56,-0.84 5.20,0.86 5.02,1.47 4.84,2.08 4.52,2.63 4.20,3.18 3.76,3.64 3.31,4.09 2.78,4.43 2.24,4.77 1.63,4.97 1.03,5.17 0.40,5.22 -0.23,5.26 -0.86,5.16 -1.48,5.06 -2.07,4.80 -2.65,4.55 -3.16,4.17 -3.66,3.78 -4.06,3.29 -4.46,2.80 -4.74,2.22 -5.01,1.64 -5.13,1.02 -5.25,0.40 -5.23,-0.23 -5.20,-0.86 -5.20,-0.86 L -5.20,-0.86 Z"></path></g></svg>